<svg width="828" height="451" viewBox="0 0 828 451" fill="none" xmlns="http://www.w3.org/2000/svg">
<g filter="url(#filter0_d)">
<path d="M171.013 255.946V131.097M220.136 25.2508H171.013V131.097M171.013 131.097H220.136M252.237 255.946V75.8252M303.645 10.5V236.942H347.856M654.275 25.2508H590.414V132.503M590.414 132.503V236.942H624.801H654.275M590.414 132.503H634.625M26 131.097H77.6783M127.35 131.097H77.6783M77.6783 131.097V187.262M77.6783 131.097V75.8252M252.237 10.5V53.4763M77.6783 273.636L43.292 346.035M77.6783 273.636L112.065 202.628M77.6783 273.636C77.6783 273.636 443.218 536.738 743.126 255.946C743.126 255.946 776.268 224.245 781.071 193.504C785.875 162.763 776.268 153.637 776.268 153.637C776.268 153.637 764.445 140.918 749.85 137.306C739.289 134.692 716.227 132.503 716.227 132.503C707.25 130.633 681.308 131.055 677.849 105.398C673.595 73.8478 678.782 68.7362 681.164 61.895C683.545 55.0538 694.891 42.8626 701.818 38.3591C711.991 31.7442 727.635 34.1104 743.126 38.3591C758.617 42.6077 758.976 68.1392 758.976 68.1392M375.202 255.946L401.892 32.3072L451.015 173.435L500.139 32.3072L538.515 255.946" stroke="#E50914" stroke-width="40" stroke-linejoin="round"/>
</g>
<defs>
<filter id="filter0_d" x="0.226074" y="0.250793" width="827.19" height="450.234" filterUnits="userSpaceOnUse" color-interpolation-filters="sRGB">
<feFlood flood-opacity="0" result="BackgroundImageFix"/>
<feColorMatrix in="SourceAlpha" type="matrix" values="0 0 0 0 0 0 0 0 0 0 0 0 0 0 0 0 0 0 127 0"/>
<feOffset dy="20"/>
<feGaussianBlur stdDeviation="12.5"/>
<feColorMatrix type="matrix" values="0 0 0 0 0 0 0 0 0 0 0 0 0 0 0 0 0 0 1 0"/>
<feBlend mode="darken" in2="BackgroundImageFix" result="effect1_dropShadow"/>
<feBlend mode="normal" in="SourceGraphic" in2="effect1_dropShadow" result="shape"/>
</filter>
</defs>
</svg>
